<svg xmlns="http://www.w3.org/2000/svg" xmlns:xlink="http://www.w3.org/1999/xlink" width="75" height="75" viewBox="0 0 75 75"><defs><radialGradient id="b" cx="17.654%" cy="13.231%" r="100%" fx="17.654%" fy="13.231%"><stop offset="0%" stop-color="#273441"/><stop offset="100%" stop-color="#273441"/></radialGradient><circle id="a" cx="37.5" cy="37.5" r="37.5"/><radialGradient id="c" cx="60.59%" cy="38.526%" r="86.598%" fx="60.59%" fy="38.526%"><stop offset="0%" stop-color="#C0CEBA"/><stop offset="25.417%" stop-color="#8BADB2"/><stop offset="67.245%" stop-color="#3D7270"/><stop offset="100%" stop-color="#2D484B"/></radialGradient><radialGradient id="e" cx="31.745%" cy="14.645%" r="76.024%" fx="31.745%" fy="14.645%"><stop offset="0%" stop-opacity="0"/><stop offset="29.982%" stop-opacity=".041"/><stop offset="100%" stop-color="#270446" stop-opacity=".407"/></radialGradient></defs><g fill="none" fill-rule="evenodd"><mask id="d" fill="#fff"><use xlink:href="#a"/></mask><use fill="url(#b)" xlink:href="#a"/><path fill="url(#c)" d="M-2.987-2.987H75V75H-2.987z" mask="url(#d)" opacity=".9"/><path fill="url(#e)" d="M-5.11-7.467h95.575V76.99H-5.11z" mask="url(#d)" style="mix-blend-mode:overlay"/><path fill="#FFF" d="M74 13l2 30-34-13v-9M43 20H30l1.25-3h10.5M31 77c-1.82-.654-4-3-4-3l4-39-3-3h17l-3 3 6 40s-1.463 1.833-4 2c-2.046.763-7-1-7-1s-3.404 1.824-6 1z" mask="url(#d)"/></g></svg>